<mxfile host="app.diagrams.net" modified="2022-10-21T15:39:24.322Z" agent="5.0 (Windows NT 10.0; Win64; x64) AppleWebKit/537.36 (KHTML, like Gecko) Chrome/106.0.0.0 Safari/537.36" etag="UqNrzlayCjNC_6iaz644" version="20.5.0" type="github">
  <diagram id="7_qdiXrLEsY_hJKWmlg3" name="PÃ¡gina-1">
    <mxGraphModel dx="1422" dy="747" grid="1" gridSize="50" guides="1" tooltips="1" connect="1" arrows="1" fold="1" page="1" pageScale="1" pageWidth="827" pageHeight="1169" math="0" shadow="0">
      <root>
        <mxCell id="0" />
        <mxCell id="1" parent="0" />
        <mxCell id="4o7HoIzFS5V6N2CPVpxR-2" value="" style="rounded=1;arcSize=10;dashed=1;strokeColor=#ff0000;fillColor=none;gradientColor=none;dashPattern=8 4;strokeWidth=2;" vertex="1" parent="1">
          <mxGeometry x="80" y="700" width="199.5" height="199.5" as="geometry" />
        </mxCell>
        <mxCell id="4o7HoIzFS5V6N2CPVpxR-3" value="" style="rounded=1;arcSize=10;dashed=1;fillColor=none;gradientColor=none;dashPattern=1 1;strokeWidth=2;" vertex="1" parent="1">
          <mxGeometry x="20" y="640" width="350" height="370" as="geometry" />
        </mxCell>
      </root>
    </mxGraphModel>
  </diagram>
</mxfile>
